<svg width="18" height="16" viewBox="0 0 18 16" fill="none" xmlns="http://www.w3.org/2000/svg">
<path d="M5.68858e-08 0H3.6386L6.23333 10.6895" transform="translate(0 1)" stroke="black" stroke-miterlimit="10"/>
<path d="M1.72982 3.58895C2.68518 3.58895 3.45965 2.78554 3.45965 1.79448C3.45965 0.803414 2.68518 0 1.72982 0C0.774469 0 0 0.803414 0 1.79448C0 2.78554 0.774469 3.58895 1.72982 3.58895Z" transform="translate(4.95087 11.4111)" stroke="black" stroke-miterlimit="10"/>
<path d="M1.72982 3.58895C2.68518 3.58895 3.45965 2.78554 3.45965 1.79448C3.45965 0.803414 2.68518 0 1.72982 0C0.774469 0 0 0.803414 0 1.79448C0 2.78554 0.774469 3.58895 1.72982 3.58895Z" transform="translate(13.2421 11.4111)" stroke="black" stroke-miterlimit="10"/>
<path d="M2.27543e-07 -3.05176e-06H5.01053" transform="translate(8.32104 12.6332)" stroke="black" stroke-miterlimit="10"/>
<path d="M1.62544 6.71381H10.8263L12.8544 -2.36048e-07H2.27543e-07" transform="translate(4.14562 3.10385)" stroke="black" stroke-miterlimit="10"/>
</svg>
