<svg width="15" height="19" viewBox="0 0 15 19" fill="none" xmlns="http://www.w3.org/2000/svg">
<path d="M3.625 14.6644L3.1875 15.1107C3 15.302 3 15.6208 3.1875 15.8121C3.25 15.9396 3.375 15.9396 3.5 15.9396C3.625 15.9396 3.75 15.9396 3.875 15.8121L4.3125 15.3658C4.5 15.1745 4.5 14.8557 4.3125 14.6644C4.125 14.4732 3.8125 14.5369 3.625 14.6644ZM2.5 10.9664H1.875C1.625 10.9664 1.375 11.1577 1.375 11.4765C1.375 11.7953 1.5625 11.9866 1.875 11.9866H2.5C2.75 11.9866 3 11.7953 3 11.4765C3 11.1577 2.75 10.9664 2.5 10.9664ZM7.5 6.75839C7.75 6.75839 8 6.56711 8 6.24832V5.61074C8 5.35571 7.8125 5.10067 7.5 5.10067C7.1875 5.10067 7 5.29195 7 5.61074V6.24832C7 6.56711 7.25 6.75839 7.5 6.75839ZM3.875 7.01342C3.6875 6.82215 3.375 6.82215 3.1875 7.01342C3 7.2047 3 7.52349 3.1875 7.71477L3.625 8.16107C3.6875 8.22483 3.8125 8.28859 3.9375 8.28859C4.0625 8.28859 4.1875 8.22483 4.25 8.16107C4.4375 7.9698 4.4375 7.65101 4.25 7.45973L3.875 7.01342ZM9.6875 8.47987L7.625 10.5201C7.3125 10.4564 7 10.5201 6.75 10.7114C6.375 11.094 6.375 11.6678 6.75 12.0503C7.125 12.4329 7.6875 12.4329 8.0625 12.0503C8.3125 11.7953 8.375 11.4765 8.3125 11.1577L10.375 9.11745C10.5625 8.92618 10.5625 8.60738 10.375 8.41611C10.1875 8.28859 9.875 8.28859 9.6875 8.47987ZM8 3.76174V3.37919C8.6875 3.18792 9.25 2.48658 9.25 1.72148C9.1875 0.828859 8.4375 0 7.5 0C6.5625 0 5.8125 0.765101 5.8125 1.72148C5.8125 2.48658 6.3125 3.18792 7.0625 3.37919V3.76174C3.125 4.01678 0 7.33221 0 11.349C0 15.557 3.375 19 7.5 19C11.625 19 15 15.557 15 11.349C15 7.33221 11.875 4.01678 8 3.76174ZM6.75 1.78523C6.75 1.33893 7.0625 1.02013 7.5 1.02013C7.9375 1.02013 8.25 1.33893 8.25 1.78523C8.25 2.16779 7.9375 2.55034 7.5 2.55034C7.0625 2.55034 6.75 2.16779 6.75 1.78523ZM7.5 18.0436C3.875 18.0436 0.9375 15.047 0.9375 11.349C0.9375 7.65101 3.875 4.71812 7.5 4.71812C11.125 4.71812 14.0625 7.71476 14.0625 11.4128C14.0625 15.1107 11.125 18.0436 7.5 18.0436ZM7.5 16.0671C7.25 16.0671 7 16.2584 7 16.5772V17.2148C7 17.4698 7.1875 17.7248 7.5 17.7248C7.8125 17.7248 8 17.5336 8 17.2148V16.5772C8 16.2584 7.75 16.0671 7.5 16.0671ZM13.125 10.9664H12.5C12.25 10.9664 12 11.1577 12 11.4765C12 11.7953 12.1875 11.9866 12.5 11.9866H13.125C13.375 11.9866 13.625 11.7953 13.625 11.4765C13.625 11.1577 13.375 10.9664 13.125 10.9664ZM11.125 7.01342L10.6875 7.45973C10.5 7.65101 10.5 7.9698 10.6875 8.16107C10.75 8.22483 10.875 8.28859 11 8.28859C11.125 8.28859 11.25 8.22483 11.3125 8.16107L11.75 7.71477C11.9375 7.52349 11.9375 7.2047 11.75 7.01342C11.625 6.82215 11.3125 6.82215 11.125 7.01342ZM11.375 14.6644C11.1875 14.4732 10.875 14.4732 10.6875 14.6644C10.5 14.8557 10.5 15.1745 10.6875 15.3658L11.125 15.8121C11.25 15.9396 11.375 15.9396 11.5 15.9396C11.625 15.9396 11.75 15.8758 11.8125 15.8121C12 15.6208 12 15.302 11.8125 15.1107L11.375 14.6644Z" fill="#444444"/>
</svg>
