<svg width="7" height="7" viewBox="0 0 7 7" fill="none" xmlns="http://www.w3.org/2000/svg">
<path d="M6.8073 5.8798L4.4275 3.5L6.8073 1.1202C7.06423 0.86327 7.06423 0.449629 6.8073 0.192698C6.55037 -0.0642327 6.13673 -0.0642327 5.8798 0.192698L3.5 2.5725L1.1202 0.192698C0.86327 -0.0642327 0.449629 -0.0642327 0.192698 0.192698C-0.0642327 0.449629 -0.0642327 0.86327 0.192698 1.1202L2.5725 3.5L0.192698 5.8798C-0.0642327 6.13673 -0.0642327 6.55037 0.192698 6.8073C0.449629 7.06423 0.86327 7.06423 1.1202 6.8073L3.5 4.4275L5.8798 6.8073C6.13673 7.06423 6.55037 7.06423 6.8073 6.8073C7.06241 6.55037 7.06241 6.13491 6.8073 5.8798Z" fill="#AB1414"/>
</svg>
