<svg width="13" height="19" viewBox="0 0 13 19" fill="none" xmlns="http://www.w3.org/2000/svg">
<path d="M6.59848 7.704e-09C2.63939 7.704e-09 -6.2928e-08 2.58503 -6.2928e-08 6.33333C-6.2928e-08 11.3741 4.75091 17.6429 6.00462 18.8707C6.0706 18.9354 6.20257 19 6.33454 19C6.46651 19 6.59848 18.9354 6.66446 18.8061C7.32431 18.0952 12.999 11.6327 12.999 6.33333C13.065 1.93878 9.83174 7.704e-09 6.59848 7.704e-09ZM6.33454 17.7721C4.81689 16.0272 0.989772 10.5986 0.989772 6.33333C0.989772 3.03742 3.16727 0.969388 6.59848 0.969388C9.1059 0.969388 12.0752 2.39116 12.0752 6.33333C12.0752 10.1463 8.64401 15.1871 6.33454 17.7721ZM6.5325 3.7483C5.08083 3.7483 3.8931 4.91156 3.8931 6.33333C3.8931 7.7551 5.08083 8.91837 6.5325 8.91837C7.98416 8.91837 9.17189 7.7551 9.17189 6.33333C9.17189 4.91156 7.98416 3.7483 6.5325 3.7483ZM6.5325 7.94898C5.60871 7.94898 4.88288 7.2381 4.88288 6.33333C4.88288 5.42857 5.60871 4.71769 6.5325 4.71769C7.45628 4.71769 8.18212 5.42857 8.18212 6.33333C8.18212 7.2381 7.45628 7.94898 6.5325 7.94898Z" fill="#444444"/>
</svg>
