<svg width="18" height="20" viewBox="0 0 18 20" fill="none" xmlns="http://www.w3.org/2000/svg">
<path d="M0 0V2H2.57143V0H0ZM1.92857 1.33333H0.642857V0.666667H1.92857V1.33333Z" transform="translate(14.1429 8.66667)" fill="black"/>
<path d="M0 0V2H2.57143V0H0ZM1.92857 1.33333H0.642857V0.666667H1.92857V1.33333Z" transform="translate(14.1429 11.3333)" fill="black"/>
<path d="M0 0V2H2.57143V0H0ZM1.92857 1.33333H0.642857V0.666667H1.92857V1.33333Z" transform="translate(14.1429 14)" fill="black"/>
<path d="M0 0V2H2.57143V0H0ZM1.92857 1.33333H0.642857V0.666667H1.92857V1.33333Z" transform="translate(14.1429 16.6667)" fill="black"/>
<path d="M4.5 2V0H1.92857V2H0V4.66667H1.92857V6.66667H4.5V4.66667H6.42857V2H4.5ZM5.78571 4H3.85714V6H2.57143V4H0.642857V2.66667H2.57143V0.666667H3.85714V2.66667H5.78571V4Z" transform="translate(5.78572 1.33334)" fill="black"/>
<path d="M13.5 7.33333V0H4.5V7.33333H0V20H18V7.33333H13.5ZM4.5 19.3333H0.642857V8H4.5V19.3333ZM8.67857 19.3333H7.07143V13.3333H8.67857V19.3333ZM10.9286 19.3333H9.32143V13.3333H10.9286V19.3333ZM12.8571 19.3333H11.5714V12.6667H6.42857V19.3333H5.14286V0.666667H12.8571V19.3333ZM17.3571 19.3333H13.5V8H17.3571V19.3333Z" fill="black"/>
<path d="M0 0V2H2.57143V0H0ZM1.92857 1.33333H0.642857V0.666667H1.92857V1.33333Z" transform="translate(1.28572 8.66667)" fill="black"/>
<path d="M0 0V2H2.57143V0H0ZM1.92857 1.33333H0.642857V0.666667H1.92857V1.33333Z" transform="translate(1.28572 11.3333)" fill="black"/>
<path d="M0 0V2H2.57143V0H0ZM1.92857 1.33333H0.642857V0.666667H1.92857V1.33333Z" transform="translate(1.28572 14)" fill="black"/>
<path d="M0 0V2H2.57143V0H0ZM1.92857 1.33333H0.642857V0.666667H1.92857V1.33333Z" transform="translate(1.28572 16.6667)" fill="black"/>
</svg>
