<svg width="13" height="9" viewBox="0 0 13 9" fill="none" xmlns="http://www.w3.org/2000/svg">
<path d="M12.0714 3.6H3.15714L5.30214 1.521C5.48507 1.3437 5.57143 1.1322 5.57143 0.9C5.57143 0.4572 5.19396 0 4.64286 0C4.39632 0 4.18136 0.08685 4.00214 0.261L0.307357 3.8421C0.155071 3.9897 0 4.17195 0 4.5C0 4.82805 0.129536 4.986 0.299929 5.15115L4.00214 8.739C4.18136 8.91315 4.39632 9 4.64286 9C5.19443 9 5.57143 8.5428 5.57143 8.1C5.57143 7.8678 5.48507 7.6563 5.30214 7.479L3.15714 5.4H12.0714C12.584 5.4 13 4.9968 13 4.5C13 4.0032 12.584 3.6 12.0714 3.6Z" transform="translate(0.000244141)" fill="#3AC582"/>
</svg>
