<svg width="18" height="18" viewBox="0 0 18 18" fill="none" xmlns="http://www.w3.org/2000/svg">
<path d="M2.50946 1.87114e-06C2.50946 1.87114e-06 4.65168 2.11531 5.52387 2.28393L7.31415 0.490512C7.31415 0.490512 8.01802 -0.183941 8.7678 0.505837L11.6904 3.43355C11.6904 3.43355 12.1648 4.30727 11.6139 4.84377L10.1908 6.2693C10.1908 6.2693 7.68139 7.87879 3.65708 5.30362C3.65708 5.30362 1.75968 4.30727 -1.86787e-06 2.51385" transform="translate(5.11974 10.2339)" stroke="black" stroke-miterlimit="10"/>
<path d="M6.78222 9.38722C6.78222 9.38722 4.6706 7.24125 4.48698 6.36753L6.27726 4.57411C6.27726 4.57411 6.95053 3.869 6.26196 3.11791L3.32406 0.190193C3.32406 0.190193 2.45187 -0.284987 1.91632 0.266834L0.493272 1.69237C0.493272 1.69237 -1.11339 4.20623 1.47257 8.23759C1.47257 8.23759 2.46717 10.1383 4.27276 11.9011" transform="translate(1 1)" stroke="black" stroke-miterlimit="10"/>
</svg>
